<?xml version="1.0" encoding="utf-8"?>
<!-- Generator: Adobe Illustrator 25.2.1, SVG Export Plug-In . SVG Version: 6.00 Build 0)  -->
<svg version="1.1" id="Camada_1" xmlns="http://www.w3.org/2000/svg" xmlns:xlink="http://www.w3.org/1999/xlink" x="0px" y="0px"
	 viewBox="0 0 100 100" style="enable-background:new 0 0 100 100;" xml:space="preserve">
<style type="text/css">
	.st0{fill:#A71923;}
	.st1{fill:none;stroke:#A71A23;stroke-width:6;stroke-miterlimit:10;}
</style>
<g>
	<path class="st0" d="M40.93,43.85v2.99c0,1.16,0.94,2.1,2.1,2.1h0c1.16,0,2.1,0.94,2.1,2.1v18.85c0,1.16,0.94,2.1,2.1,2.1h9.76
		c1.16,0,2.1-0.94,2.1-2.1v-1.73c0-1.16-0.94-2.1-2.1-2.1h-2.15c-1.16,0-2.1-0.94-2.1-2.1V43.85c0-1.16-0.94-2.1-2.1-2.1h-7.61
		C41.87,41.76,40.93,42.69,40.93,43.85z"/>
	<circle class="st0" cx="46.81" cy="33.09" r="5.07"/>
</g>
<circle class="st1" cx="50" cy="50" r="39.53"/>
</svg>
