<?xml version="1.0" encoding="utf-8"?>
<!-- Generator: Adobe Illustrator 25.2.1, SVG Export Plug-In . SVG Version: 6.00 Build 0)  -->
<svg version="1.1" id="Camada_1" xmlns="http://www.w3.org/2000/svg" xmlns:xlink="http://www.w3.org/1999/xlink" x="0px" y="0px"
	 viewBox="0 0 100 100" style="enable-background:new 0 0 100 100;" xml:space="preserve">
<style type="text/css">
	.st0{fill:#DB0C2D;stroke:#010202;stroke-width:5;stroke-miterlimit:10;}
</style>
<path class="st0" d="M50,84.25l-3.83-3.46c-10.16-9.28-18.29-17.38-24.39-24.3s-9.16-13.93-9.16-21.03c0-5.61,1.88-10.3,5.65-14.07
	s8.43-5.65,13.97-5.65c3.18,0,6.32,0.76,9.44,2.29c3.12,1.53,5.89,4.03,8.32,7.52c2.74-3.49,5.58-6,8.51-7.52
	c2.93-1.53,6.01-2.29,9.25-2.29c5.55,0,10.2,1.88,13.97,5.65c3.77,3.77,5.65,8.46,5.65,14.07c0,7.1-3.05,14.11-9.16,21.03
	S63.99,71.51,53.83,80.8L50,84.25z M50.3,47.25L50.3,47.25L50.3,47.25L50.3,47.25L50.3,47.25L50.3,47.25L50.3,47.25L50.3,47.25
	L50.3,47.25L50.3,47.25L50.3,47.25L50.3,47.25L50.3,47.25z"/>
</svg>
