<?xml version="1.0" encoding="utf-8"?>
<!-- Generator: Adobe Illustrator 25.2.1, SVG Export Plug-In . SVG Version: 6.00 Build 0)  -->
<svg version="1.1" id="Camada_1" xmlns="http://www.w3.org/2000/svg" xmlns:xlink="http://www.w3.org/1999/xlink" x="0px" y="0px"
	 viewBox="0 0 100 100" style="enable-background:new 0 0 100 100;" xml:space="preserve">
<style type="text/css">
	.st0{fill:#A71923;}
	.st1{fill:#CDCCCC;}
	.st2{fill:#DB0C2D;}
</style>
<path class="st0" d="M24.75,95.28h50.3c6.27,0,11.35-5.67,11.35-12.66V53.45c0-3.36-1.2-6.58-3.33-8.95L58.11,16.66
	c-4.43-4.94-11.62-4.94-16.06,0L16.72,44.9c-2.13,2.37-3.33,5.6-3.33,8.95l0.01,28.77C13.4,89.62,18.48,95.28,24.75,95.28z"/>
<path class="st1" d="M24.75,90.1h50.3c6.27,0,11.35-5.67,11.35-12.66V48.27c0-3.36-1.2-6.58-3.33-8.95L58.11,11.48
	c-4.43-4.94-11.62-4.94-16.06,0L16.72,39.73c-2.13,2.37-3.33,5.6-3.33,8.95l0.01,28.77C13.4,84.44,18.48,90.1,24.75,90.1z"/>
<g>
	<rect x="36.61" y="52.28" class="st0" width="26.78" height="41.22"/>
	<rect x="36.61" y="54.12" class="st2" width="26.78" height="41.22"/>
</g>
<path class="st1" d="M67.6,7.78H78.5c1.67,0,3.02,1.35,3.02,3.02v25.24c0,1.67-1.35,3.02-3.02,3.02H67.6
	c-1.67,0-3.02-1.35-3.02-3.02V10.8C64.58,9.13,65.93,7.78,67.6,7.78z"/>
<g>
	<path class="st2" d="M48,5.49l-5.11,5.11c-1.1,1.1-1.1,2.9,0,4l41.45,41.45c1.1,1.1,2.9,1.1,4,0l5.11-5.11c1.1-1.1,1.1-2.9,0-4
		L52,5.49C50.9,4.39,49.1,4.39,48,5.49z"/>
	<path class="st2" d="M57.12,10.61L52,5.49c-1.1-1.1-2.9-1.1-4,0L6.55,46.94c-1.1,1.1-1.1,2.9,0,4l5.11,5.11c1.1,1.1,2.9,1.1,4,0
		l41.45-41.45C58.22,13.5,58.22,11.71,57.12,10.61z"/>
</g>
</svg>
