<?xml version="1.0" encoding="utf-8"?>
<!-- Generator: Adobe Illustrator 25.2.1, SVG Export Plug-In . SVG Version: 6.00 Build 0)  -->
<svg version="1.1" id="Camada_1" xmlns="http://www.w3.org/2000/svg" xmlns:xlink="http://www.w3.org/1999/xlink" x="0px" y="0px"
	 viewBox="0 0 100 100" style="enable-background:new 0 0 100 100;" xml:space="preserve">
<style type="text/css">
	.st0{fill:#012E2A;stroke:#000000;stroke-width:5;stroke-miterlimit:10;}
</style>
<g>
	<path class="st0" d="M92.71,49.07v1.87c0,5.54-4.5,10.04-10.05,10.04H60.97v21.69c0,5.55-4.5,10.05-10.04,10.05h-1.87
		c-5.54,0-10.04-4.5-10.04-10.05V60.97H17.34c-5.55,0-10.05-4.5-10.05-10.04v-1.87c0-5.54,4.5-10.04,10.05-10.04h21.69V17.34
		c0-5.55,4.5-10.05,10.04-10.05h1.87c5.54,0,10.04,4.5,10.04,10.05v21.69h21.69C88.22,39.03,92.71,43.52,92.71,49.07z"/>
</g>
</svg>
